<svg width="122" height="112" viewBox="0 0 122 112" fill="none" xmlns="http://www.w3.org/2000/svg">
<path d="M106.823 41.6678C104.316 41.8129 101.805 41.4447 99.4458 40.5858C97.0862 39.7269 94.9271 38.3954 93.1008 36.6729C91.2744 34.9504 89.8195 32.8733 88.825 30.5689C87.8305 28.2645 87.3175 25.7815 87.3175 23.2719C87.3175 20.7624 87.8305 18.2793 88.825 15.9749C89.8195 13.6705 91.2744 11.5934 93.1008 9.87091C94.9271 8.14845 97.0862 6.81694 99.4458 5.95802C101.805 5.09911 104.316 4.73091 106.823 4.87598C108.406 4.86414 109.983 5.07154 111.51 5.49226C106.938 2.20358 101.436 0.455304 95.8033 0.500869C90.1703 0.546433 84.6981 2.38346 80.1799 5.74567C75.6618 9.10788 72.3325 13.8206 70.6745 19.2007C69.0166 24.5808 69.1162 30.3487 70.9589 35.6684C72.8015 40.9882 76.2916 45.5833 80.9231 48.7877C85.5547 51.9922 91.087 53.6394 96.7183 53.4908C102.35 53.3421 107.787 51.4052 112.243 47.9608C116.699 44.5165 119.941 39.7436 121.5 34.3341C119.796 36.6165 117.581 38.4686 115.032 39.742C112.484 41.0155 109.672 41.675 106.823 41.6678Z" fill="url(#paint0_linear_3780_96126)"/>
<g filter="url(#filter0_f_3780_96126)">
<ellipse cx="54" cy="80" rx="31.5" ry="9.5" fill="#949494" fill-opacity="0.7"/>
</g>
<g filter="url(#filter1_bi_3780_96126)">
<path fill-rule="evenodd" clip-rule="evenodd" d="M77.5 42.5C77.5 43.2882 77.4696 44.0693 77.4099 44.8422C80.6949 42.1296 84.9071 40.5 89.5 40.5C99.9934 40.5 108.5 49.0066 108.5 59.5C108.5 69.658 100.529 77.9541 90.5 78.4741V78.5H89.5H19.5H17.5V78.396C7.94667 77.3966 0.5 69.3179 0.5 59.5C0.5 49.6618 7.97752 41.57 17.5593 40.5979C18.5405 24.9156 31.5704 12.5 47.5 12.5C64.0685 12.5 77.5 25.9315 77.5 42.5Z" fill="url(#paint1_linear_3780_96126)"/>
</g>
<defs>
<filter id="filter0_f_3780_96126" x="0.5" y="48.5" width="107" height="63" filterUnits="userSpaceOnUse" color-interpolation-filters="sRGB">
<feFlood flood-opacity="0" result="BackgroundImageFix"/>
<feBlend mode="normal" in="SourceGraphic" in2="BackgroundImageFix" result="shape"/>
<feGaussianBlur stdDeviation="11" result="effect1_foregroundBlur_3780_96126"/>
</filter>
<filter id="filter1_bi_3780_96126" x="-6.5" y="5.5" width="122" height="80" filterUnits="userSpaceOnUse" color-interpolation-filters="sRGB">
<feFlood flood-opacity="0" result="BackgroundImageFix"/>
<feGaussianBlur in="BackgroundImageFix" stdDeviation="3.5"/>
<feComposite in2="SourceAlpha" operator="in" result="effect1_backgroundBlur_3780_96126"/>
<feBlend mode="normal" in="SourceGraphic" in2="effect1_backgroundBlur_3780_96126" result="shape"/>
<feColorMatrix in="SourceAlpha" type="matrix" values="0 0 0 0 0 0 0 0 0 0 0 0 0 0 0 0 0 0 127 0" result="hardAlpha"/>
<feOffset dy="2"/>
<feGaussianBlur stdDeviation="4"/>
<feComposite in2="hardAlpha" operator="arithmetic" k2="-1" k3="1"/>
<feColorMatrix type="matrix" values="0 0 0 0 1 0 0 0 0 1 0 0 0 0 1 0 0 0 0.25 0"/>
<feBlend mode="normal" in2="shape" result="effect2_innerShadow_3780_96126"/>
</filter>
<linearGradient id="paint0_linear_3780_96126" x1="95.5" y1="0.5" x2="95.5" y2="53.5" gradientUnits="userSpaceOnUse">
<stop stop-color="#FDC500"/>
<stop offset="1" stop-color="#FD8900"/>
</linearGradient>
<linearGradient id="paint1_linear_3780_96126" x1="56.5" y1="102" x2="97" y2="12.5" gradientUnits="userSpaceOnUse">
<stop stop-color="#DFDFDF"/>
<stop offset="1" stop-color="#92AABB" stop-opacity="0"/>
</linearGradient>
</defs>
</svg>
