<svg width="66" height="66" viewBox="0 0 66 66" fill="none" xmlns="http://www.w3.org/2000/svg">
<path d="M47.1534 51.2656C44.0196 51.4462 40.8817 50.9877 37.9322 49.9181C34.9827 48.8485 32.2838 47.1904 30.0009 45.0455C27.7181 42.9005 25.8993 40.3139 24.6562 37.4443C23.4132 34.5747 22.7719 31.4826 22.7719 28.3575C22.7719 25.2324 23.4132 22.1402 24.6562 19.2706C25.8993 16.401 27.7181 13.8144 30.0009 11.6694C32.2838 9.52448 34.9827 7.86637 37.9322 6.79679C40.8817 5.7272 44.0196 5.26868 47.1534 5.44934C49.1325 5.43459 51.104 5.69286 53.012 6.21678C47.2969 2.12144 40.4205 -0.0556592 33.3792 0.00108158C26.3378 0.0578223 19.4976 2.34544 13.8499 6.53235C8.20224 10.7193 4.04057 16.5879 1.96815 23.2876C-0.10428 29.9874 0.0202001 37.1701 2.32356 43.7946C4.62693 50.4192 8.98951 56.1414 14.7789 60.1319C20.5683 64.1223 27.4838 66.1736 34.5228 65.9885C41.5619 65.8034 48.3589 63.3914 53.9286 59.1022C59.4983 54.813 63.5512 48.8694 65.5 42.133C63.3701 44.9753 60.6014 47.2816 57.4156 48.8674C54.2297 50.4533 50.7152 51.2746 47.1534 51.2656Z" fill="url(#paint0_linear_3780_96228)"/>
<defs>
<linearGradient id="paint0_linear_3780_96228" x1="33" y1="0" x2="33" y2="66" gradientUnits="userSpaceOnUse">
<stop stop-color="#FDC500"/>
<stop offset="1" stop-color="#FD8900"/>
</linearGradient>
</defs>
</svg>
