<svg width="108" height="104" viewBox="0 0 108 104" fill="none" xmlns="http://www.w3.org/2000/svg">
<g filter="url(#filter0_f_3780_97934)">
<ellipse cx="53.5" cy="68.001" rx="31.5" ry="9.5" fill="#949494" fill-opacity="0.7"/>
</g>
<path fill-rule="evenodd" clip-rule="evenodd" d="M41.8166 56.3168C41.8166 54.7617 40.556 53.501 39.0008 53.501C37.4457 53.501 36.185 54.7617 36.185 56.3168V59.7039L33.79 57.3089C32.6903 56.2092 30.9074 56.2092 29.8078 57.3089C28.7082 58.4085 28.7082 60.1914 29.8078 61.291L32.203 63.6862H28.8158C27.2607 63.6862 26 64.9468 26 66.502C26 68.0571 27.2607 69.3178 28.8158 69.3178H32.2028L29.8077 71.7129C28.7081 72.8125 28.7081 74.5954 29.8077 75.6951C30.9074 76.7947 32.6902 76.7947 33.7899 75.6951L36.185 73.2999V76.6872C36.185 78.2423 37.4457 79.503 39.0008 79.503C40.556 79.503 41.8166 78.2423 41.8166 76.6872V73.2999L44.2118 75.6951C45.3115 76.7947 47.0944 76.7947 48.194 75.6951C49.2936 74.5954 49.2936 72.8125 48.194 71.7129L45.7989 69.3178H49.1862C50.7413 69.3178 52.002 68.0571 52.002 66.502C52.002 64.9469 50.7413 63.6862 49.1862 63.6862H45.7988L48.1939 61.291C49.2936 60.1914 49.2936 58.4085 48.1939 57.3089C47.0943 56.2092 45.3114 56.2092 44.2118 57.3089L41.8166 59.704V56.3168Z" fill="url(#paint0_linear_3780_97934)"/>
<path fill-rule="evenodd" clip-rule="evenodd" d="M76.2651 50.7401C76.2651 48.9512 74.815 47.501 73.0261 47.501C71.2372 47.501 69.787 48.9512 69.787 50.7401V54.6799L67.0012 51.8941C65.7362 50.6291 63.6854 50.6291 62.4204 51.8941C61.1555 53.159 61.1555 55.2098 62.4204 56.4748L65.2066 59.2609H61.2664C59.4775 59.2609 58.0273 60.7111 58.0273 62.5C58.0273 64.2888 59.4775 65.739 61.2664 65.739H65.2063L62.4202 68.5251C61.1552 69.79 61.1552 71.8409 62.4202 73.1058C63.6851 74.3708 65.736 74.3708 67.0009 73.1058L69.787 70.3197V74.2599C69.787 76.0488 71.2372 77.499 73.0261 77.499C74.815 77.499 76.2651 76.0488 76.2651 74.2599V70.3195L79.0515 73.1058C80.3164 74.3708 82.3673 74.3708 83.6322 73.1058C84.8972 71.8409 84.8972 69.79 83.6322 68.5251L80.8461 65.739H84.7863C86.5752 65.739 88.0253 64.2888 88.0253 62.5C88.0253 60.7111 86.5752 59.2609 84.7863 59.2609H80.8458L83.632 56.4748C84.8969 55.2098 84.8969 53.159 83.632 51.8941C82.367 50.6291 80.3162 50.6291 79.0512 51.8941L76.2651 54.6801V50.7401Z" fill="url(#paint1_linear_3780_97934)"/>
<path fill-rule="evenodd" clip-rule="evenodd" d="M63.3741 83.8762C63.3741 82.5644 62.3106 81.501 60.9988 81.501C59.687 81.501 58.6235 82.5644 58.6235 83.8762V86.7654L56.5806 84.7225C55.653 83.7949 54.1491 83.7949 53.2215 84.7225C52.2939 85.6501 52.2939 87.154 53.2215 88.0816L55.2646 90.1247H52.3753C51.0634 90.1247 50 91.1882 50 92.5C50 93.8118 51.0634 94.8752 52.3753 94.8752H55.2644L53.2213 96.9183C52.2937 97.8459 52.2937 99.3498 53.2213 100.277C54.1489 101.205 55.6529 101.205 56.5804 100.277L58.6235 98.2343V101.124C58.6235 102.436 59.687 103.499 60.9988 103.499C62.3106 103.499 63.3741 102.436 63.3741 101.124V98.2341L65.4173 100.277C66.3449 101.205 67.8489 101.205 68.7765 100.277C69.7041 99.3498 69.7041 97.8459 68.7765 96.9183L66.7334 94.8752H69.6227C70.9346 94.8752 71.998 93.8118 71.998 92.5C71.998 91.1882 70.9346 90.1247 69.6227 90.1247H66.7332L68.7763 88.0816C69.7039 87.154 69.7039 85.6501 68.7763 84.7225C67.8487 83.7949 66.3447 83.7949 65.4171 84.7225L63.3741 86.7656V83.8762Z" fill="url(#paint2_linear_3780_97934)"/>
<g filter="url(#filter1_bi_3780_97934)">
<path fill-rule="evenodd" clip-rule="evenodd" d="M77 30.501C77 31.2892 76.9696 32.0703 76.9099 32.8432C80.1949 30.1306 84.4071 28.501 89 28.501C99.4934 28.501 108 37.0076 108 47.501C108 57.659 100.029 65.9551 90 66.4751V66.501H89H19H17V66.397C7.44667 65.3976 0 57.3189 0 47.501C0 37.6627 7.47752 29.571 17.0593 28.5989C18.0405 12.9166 31.0704 0.500992 47 0.500992C63.5685 0.500992 77 13.9324 77 30.501Z" fill="url(#paint3_linear_3780_97934)"/>
</g>
<path fill-rule="evenodd" clip-rule="evenodd" d="M52.002 66.501H26C26.0005 64.9463 27.261 63.6862 28.8158 63.6862H32.203L29.8078 61.291C28.7082 60.1914 28.7082 58.4085 29.8078 57.3089C30.9074 56.2092 32.6903 56.2092 33.79 57.3089L36.185 59.7039V56.3168C36.185 54.7617 37.4457 53.501 39.0008 53.501C40.556 53.501 41.8166 54.7617 41.8166 56.3168V59.704L44.2118 57.3089C45.3114 56.2092 47.0943 56.2092 48.1939 57.3089C49.2936 58.4085 49.2936 60.1914 48.1939 61.291L45.7988 63.6862H49.1862C50.741 63.6862 52.0015 64.9463 52.002 66.501Z" fill="#E0E0E0"/>
<defs>
<filter id="filter0_f_3780_97934" x="0" y="36.501" width="107" height="63" filterUnits="userSpaceOnUse" color-interpolation-filters="sRGB">
<feFlood flood-opacity="0" result="BackgroundImageFix"/>
<feBlend mode="normal" in="SourceGraphic" in2="BackgroundImageFix" result="shape"/>
<feGaussianBlur stdDeviation="11" result="effect1_foregroundBlur_3780_97934"/>
</filter>
<filter id="filter1_bi_3780_97934" x="-7" y="-6.49901" width="122" height="80" filterUnits="userSpaceOnUse" color-interpolation-filters="sRGB">
<feFlood flood-opacity="0" result="BackgroundImageFix"/>
<feGaussianBlur in="BackgroundImageFix" stdDeviation="3.5"/>
<feComposite in2="SourceAlpha" operator="in" result="effect1_backgroundBlur_3780_97934"/>
<feBlend mode="normal" in="SourceGraphic" in2="effect1_backgroundBlur_3780_97934" result="shape"/>
<feColorMatrix in="SourceAlpha" type="matrix" values="0 0 0 0 0 0 0 0 0 0 0 0 0 0 0 0 0 0 127 0" result="hardAlpha"/>
<feOffset dy="2"/>
<feGaussianBlur stdDeviation="4"/>
<feComposite in2="hardAlpha" operator="arithmetic" k2="-1" k3="1"/>
<feColorMatrix type="matrix" values="0 0 0 0 1 0 0 0 0 1 0 0 0 0 1 0 0 0 0.25 0"/>
<feBlend mode="normal" in2="shape" result="effect2_innerShadow_3780_97934"/>
</filter>
<linearGradient id="paint0_linear_3780_97934" x1="29.7119" y1="74.2407" x2="54.4073" y2="53.3968" gradientUnits="userSpaceOnUse">
<stop stop-color="#68717E"/>
<stop offset="1" stop-color="#DAE3EC"/>
</linearGradient>
<linearGradient id="paint1_linear_3780_97934" x1="62.3096" y1="71.428" x2="90.8003" y2="47.3808" gradientUnits="userSpaceOnUse">
<stop stop-color="#68717E"/>
<stop offset="1" stop-color="#DAE3EC"/>
</linearGradient>
<linearGradient id="paint2_linear_3780_97934" x1="53.1403" y1="99.047" x2="74.0329" y2="81.4129" gradientUnits="userSpaceOnUse">
<stop stop-color="#68717E"/>
<stop offset="1" stop-color="#DAE3EC"/>
</linearGradient>
<linearGradient id="paint3_linear_3780_97934" x1="56" y1="90.001" x2="96.5" y2="0.500992" gradientUnits="userSpaceOnUse">
<stop stop-color="#DFDFDF"/>
<stop offset="1" stop-color="#92AABB" stop-opacity="0"/>
</linearGradient>
</defs>
</svg>
