<svg width="24" height="24" viewBox="0 0 24 24" fill="none" xmlns="http://www.w3.org/2000/svg">
<path d="M16.61 19.9999C17.95 20.0099 19.24 19.5099 20.23 18.6099C22.2231 16.8667 22.3512 14.0535 21.1714 12M5.61998 12.5599C3.40512 6.3875 9.22156 2.79414 13.5 4.30021" stroke="#292D32" stroke-width="1.5" stroke-miterlimit="10" stroke-linecap="round" stroke-linejoin="round"/>
<path d="M7.28011 12.97C6.75011 12.7 6.16011 12.56 5.57011 12.57C0.910109 12.9 0.920108 19.68 5.57011 20.01" stroke="#292D32" stroke-width="1.5" stroke-miterlimit="10" stroke-linecap="round" stroke-linejoin="round"/>
<path d="M17 11C18.6569 11 20 9.65685 20 8C20 6.34315 18.6569 5 17 5C15.3431 5 14 6.34315 14 8C14 9.65685 15.3431 11 17 11Z" fill="#FF4C25"/>
<path d="M9.31982 16.4999L11.8798 13.9399L14.4398 16.4999" stroke="#292D32" stroke-width="1.5" stroke-miterlimit="10" stroke-linecap="round" stroke-linejoin="round"/>
<path d="M11.8799 21.18V14.01" stroke="#292D32" stroke-width="1.5" stroke-miterlimit="10" stroke-linecap="round" stroke-linejoin="round"/>
</svg>
