<svg width="21" height="20" viewBox="0 0 21 20" fill="none" xmlns="http://www.w3.org/2000/svg">
<path d="M7.35582 7.28913C7.14582 7.12579 6.85417 7.12579 6.64417 7.28913C5.53584 8.13496 2.26333 10.8941 2.28083 14.1083C2.28083 16.71 4.39834 18.8333 7.00584 18.8333C9.61334 18.8333 11.7308 16.7158 11.7308 14.1141C11.7367 10.9466 8.45832 8.14079 7.35582 7.28913Z" stroke="white" stroke-opacity="0.5" stroke-width="1.5" stroke-miterlimit="10"/>
<path d="M16.2542 0.920813C16.1042 0.804146 15.8959 0.804146 15.7459 0.920813C14.9542 1.52498 12.6167 3.49581 12.6292 5.79165C12.6292 7.64998 14.1417 9.16665 16.0042 9.16665C17.8667 9.16665 19.3792 7.65415 19.3792 5.79581C19.3834 3.53331 17.0417 1.52915 16.2542 0.920813Z" stroke="white" stroke-opacity="0.5" stroke-width="1.5" stroke-miterlimit="10"/>
</svg>
